<mxfile host="app.diagrams.net" modified="2023-09-10T01:44:49.145Z" agent="Mozilla/5.0 (Windows NT 10.0; Win64; x64) AppleWebKit/537.36 (KHTML, like Gecko) Chrome/116.0.0.0 Safari/537.36" version="21.5.2" etag="03cXEfUy_uaFz3OWwJQy" type="github">
  <diagram name="Page-1" id="8s6qtImzzHplxVCIeGJ7">
    <mxGraphModel>
      <root>
        <mxCell id="0" />
        <mxCell id="1" parent="0" />
      </root>
    </mxGraphModel>
  </diagram>
</mxfile>
